<svg width="351" height="337" viewBox="0 0 351 337" fill="none" xmlns="http://www.w3.org/2000/svg">
<mask id="mask0_26_41" style="mask-type:alpha" maskUnits="userSpaceOnUse" x="20" y="36" width="223" height="300">
<path d="M153.871 36.5051L78.385 61.564L20.7865 156.89L75.009 278.179L164.906 335.256L242.395 303.165L153.871 36.5051Z" fill="white"/>
</mask>
<g mask="url(#mask0_26_41)">
<path d="M311.418 191.85C311.418 259.164 253.457 313.727 182.164 313.727C110.872 313.727 53.0688 259.164 53.0688 191.85C53.0688 124.536 110.688 69.973 182.164 69.973C253.641 69.973 311.418 124.536 311.418 191.85Z" fill="#010101" stroke="white" stroke-width="3"/>
<path d="M304.594 178.203C304.594 245.491 246.633 300.08 175.341 300.08C104.048 300.08 46.1133 245.491 46.1133 178.203C46.1133 110.915 104.075 56.3 175.341 56.3C246.607 56.3 304.594 110.889 304.594 178.203Z" fill="#010101" stroke="white" stroke-width="3"/>
<path d="M304.594 166.242C304.594 233.556 246.633 288.119 175.341 288.119C104.048 288.119 46.1133 233.556 46.1133 166.242C46.1133 98.928 104.075 44.365 175.341 44.365C246.607 44.365 304.594 98.928 304.594 166.242Z" fill="#010101" stroke="white" stroke-width="3"/>
</g>
<path d="M41.8453 221.332L44.0057 225.126L39.7903 228.577L42.4249 233.372L47.5361 231.475L49.7228 235.243L22.3492 244.517L20.0571 240.486L41.8453 221.332ZM36.9186 231.027L26.9071 239.274L39.079 234.795L36.9186 231.027Z" fill="#010101"/>
<path d="M36.3382 208.449L40.8698 219.145L14.7872 230.184L13.0483 226.127L35.6532 216.537L32.8606 209.924L36.3382 208.449Z" fill="#010101"/>
<path d="M32.1493 194.986L35.4953 206.077L8.35877 214.245L7.06787 210.003L30.5949 202.889L28.5399 196.013L32.1493 194.986Z" fill="#010101"/>
<path d="M25.8797 170.695C26.2311 170.608 26.598 170.605 26.9509 170.685C27.3039 170.765 27.6331 170.927 27.9122 171.158C28.1914 171.388 28.4127 171.681 28.5584 172.012C28.7041 172.344 28.7702 172.705 28.7514 173.066L29.6999 181.813C29.7894 182.159 29.7975 182.522 29.7236 182.872C29.6496 183.222 29.4956 183.551 29.2736 183.831C29.0516 184.112 28.7676 184.337 28.4439 184.49C28.1202 184.643 27.7656 184.718 27.4077 184.711L20.6895 185.449L20.2153 181.049L25.9587 180.443L25.3791 175.174L19.8728 175.78L12.812 185.449C12.5603 185.786 12.24 186.066 11.8721 186.27C11.5043 186.475 11.0973 186.599 10.678 186.634L4.40769 187.319C4.05619 187.406 3.68939 187.41 3.33639 187.329C2.98349 187.249 2.65419 187.087 2.37509 186.856C2.09599 186.626 1.87469 186.333 1.72899 186.002C1.58319 185.671 1.51709 185.31 1.53589 184.948L0.587491 176.122C0.488891 175.774 0.472891 175.409 0.540891 175.054C0.608891 174.699 0.758989 174.364 0.979089 174.078C1.19919 173.791 1.48329 173.56 1.80869 173.402C2.13409 173.245 2.49179 173.166 2.85319 173.171L9.14989 172.486L9.62419 176.886L4.35499 177.466L4.93459 182.735L10.0457 182.182L17.0538 172.539C17.306 172.188 17.633 171.897 18.0111 171.688C18.3892 171.478 18.8091 171.355 19.2405 171.327L25.8797 170.695Z" fill="#010101"/>
<path d="M4.0378 153.622V158.497L28.645 158.918V163.291L4.0378 162.87V167.744L0.0332031 167.691L0.270306 153.543L4.0378 153.622Z" fill="#010101"/>
<path d="M30.9108 137.024L30.2785 141.372H24.8513L24.0609 146.851L29.3301 148.485L28.6451 152.832L1.35059 143.216L2.00919 138.632L30.9108 137.024ZM21.1101 141.556L8.14788 141.872L20.5042 145.824L21.1101 141.556Z" fill="#010101"/>
<path d="M35.6267 120.031L34.283 124.457L20.2933 125.538L17.8431 124.826L19.0286 120.664L10.5716 118.187L9.04347 123.456L32.7549 130.227L31.543 134.469L4.22217 126.802L7.43637 115.526C7.48887 115.182 7.61747 114.853 7.81277 114.565C8.00807 114.277 8.26527 114.035 8.56547 113.859C8.86577 113.682 9.20157 113.575 9.54857 113.544C9.89557 113.513 10.2451 113.561 10.5716 113.682L20.5831 116.501C21.7423 116.843 22.3746 117.449 22.48 118.345C22.4532 119.324 22.2754 120.292 21.9531 121.217L35.6267 120.031Z" fill="#010101"/>
<path d="M43.9783 96.004C44.3185 96.13 44.6249 96.333 44.8734 96.597C45.1219 96.861 45.3057 97.179 45.4104 97.527C45.5151 97.874 45.5378 98.241 45.4768 98.598C45.4157 98.956 45.2725 99.294 45.0585 99.587L40.8431 107.781C40.7287 108.12 40.5365 108.428 40.2817 108.679C40.027 108.931 39.7169 109.119 39.3763 109.229C39.0357 109.339 38.674 109.368 38.3202 109.313C37.9664 109.258 37.6304 109.122 37.3391 108.914L16.7628 98.375C16.4236 98.261 16.1159 98.068 15.8643 97.814C15.6128 97.559 15.4244 97.249 15.3143 96.908C15.2041 96.568 15.1753 96.206 15.2302 95.852C15.285 95.498 15.4219 95.162 15.6299 94.871L19.8453 86.677C19.9577 86.33 20.1495 86.014 20.4054 85.754C20.6614 85.494 20.9746 85.298 21.3199 85.18C21.6652 85.062 22.0333 85.027 22.3947 85.076C22.7562 85.126 23.1011 85.259 23.402 85.466L29.3035 88.495L27.3012 92.421L22.3218 89.786L19.6872 94.871L38.4193 104.514L41.0539 99.429L35.7847 96.794L37.8133 92.869L43.9783 96.004Z" fill="#010101"/>
<path d="M56.6249 82.04L53.9903 85.702L43.5836 78.404L40.1586 83.305L50.5653 90.603L47.9307 94.212L24.8779 77.93L27.5125 74.321L36.9181 81.039L40.3694 76.139L30.8585 69.42L33.4931 65.785L56.6249 82.04Z" fill="#010101"/>
<path d="M68.981 68.288L66.03 71.502L61.472 68.525L57.7308 72.609L61.077 76.877L58.126 80.091L41.1592 56.7482L44.2944 53.3232L68.981 68.288ZM58.4422 66.523L47.4559 59.462L55.3597 69.71L58.4422 66.523Z" fill="#010101"/>
<path d="M82.365 56.8534L78.861 59.83L66.636 52.9015L65.003 50.9519L68.322 48.1592L62.526 41.2829L58.258 44.8132L74.066 63.677L70.693 66.522L52.4092 44.8659L61.367 37.3046C61.604 37.0311 61.903 36.8172 62.238 36.6799C62.573 36.5425 62.936 36.4857 63.297 36.5139C63.658 36.542 64.008 36.6545 64.318 36.8421C64.628 37.0298 64.889 37.2874 65.082 37.5944L71.721 45.4982C72.085 45.8188 72.335 46.2503 72.43 46.7264C72.525 47.2025 72.461 47.6967 72.248 48.1328C71.69 48.9165 71.014 49.6096 70.245 50.1878L82.365 56.8534Z" fill="#010101"/>
<path d="M88.345 52.8758L84.71 55.5104L68.533 32.1414L72.169 29.5068L88.345 52.8758Z" fill="#010101"/>
<path d="M90.057 23.0777L85.842 25.5279L98.198 46.7892L94.404 49.0022L82.048 27.741L77.832 30.1912L75.962 26.9506L88.16 19.8372L90.057 23.0777Z" fill="#010101"/>
<path d="M106.682 11.5648L107.868 23.9738C107.868 25.2384 108.105 27.3197 108.474 30.1914L112.663 39.7024L108.606 41.4939L104.417 31.9566C103.805 31.1207 103.136 30.3284 102.414 29.5855L100.148 27.3197L91.929 18.0459C91.924 17.9933 91.924 17.9404 91.929 17.8878L96.091 16.07L104.258 25.9234L102.467 13.1982L106.63 11.3804L106.682 11.5648Z" fill="#010101"/>
<path d="M140.906 28.3207C141.039 28.658 141.091 29.0218 141.057 29.3829C141.024 29.7439 140.907 30.0922 140.715 30.3996C140.523 30.7071 140.261 30.9652 139.951 31.1532C139.641 31.3412 139.291 31.4539 138.93 31.4822L130.288 33.5635C129.953 33.7009 129.591 33.758 129.23 33.7302C128.87 33.7025 128.52 33.5907 128.211 33.4038C127.901 33.2168 127.639 32.96 127.446 32.6538C127.253 32.3476 127.135 32.0005 127.1 31.6403L125.493 25.0801L129.788 24.0263L131.158 29.6643L136.427 28.3734L135.11 23.1042L124.571 17.3871C124.199 17.1809 123.876 16.8981 123.621 16.5575C123.367 16.2169 123.188 15.8261 123.096 15.4111L121.62 9.2725C121.493 8.9349 121.446 8.5726 121.481 8.2136C121.517 7.8546 121.635 7.5088 121.826 7.2029C122.017 6.897 122.277 6.6393 122.584 6.4499C122.891 6.2605 123.237 6.1445 123.596 6.111L132.238 4.0296C132.57 3.8934 132.93 3.8355 133.289 3.8603C133.647 3.8852 133.995 3.9921 134.306 4.1729C134.617 4.3537 134.881 4.6035 135.08 4.903C135.279 5.2025 135.406 5.5437 135.452 5.9002L137.033 11.9598L132.738 12.9873L131.5 7.7181L126.231 8.9827L127.416 13.9621L137.955 19.6792C138.335 19.881 138.665 20.1657 138.921 20.5123C139.176 20.8589 139.35 21.2585 139.43 21.6815L140.906 28.3207Z" fill="#010101"/>
<path d="M159.717 28.5318L155.317 29.0061L153.868 16.3863L147.914 17.045L149.363 29.6911L144.936 30.218L141.775 2.0541L146.148 1.5535L147.571 13.1984L153.525 12.5134L152.103 0.8685L156.529 0.367901L159.717 28.5318Z" fill="#010101"/>
<path d="M178.159 25.9498C178.213 26.3081 178.181 26.6739 178.068 27.0179C177.954 27.3619 177.762 27.6745 177.505 27.9306C177.249 28.1868 176.937 28.3793 176.593 28.4928C176.249 28.6064 175.883 28.6377 175.525 28.5844L165.935 28.4263C165.575 28.4856 165.207 28.4584 164.86 28.347C164.514 28.2355 164.198 28.0431 163.941 27.7855C163.683 27.528 163.491 27.2128 163.379 26.8661C163.268 26.5193 163.241 26.1511 163.3 25.7917L163.643 2.6599C163.589 2.3016 163.621 1.9358 163.734 1.5918C163.848 1.2478 164.04 0.935199 164.296 0.679099C164.553 0.422899 164.865 0.230397 165.209 0.116797C165.553 0.00329694 165.919 -0.0281024 166.277 0.0252976L175.867 0.183398C176.224 0.135598 176.588 0.170898 176.929 0.286398C177.271 0.401998 177.581 0.594597 177.836 0.849497C178.09 1.1043 178.283 1.4145 178.399 1.7559C178.514 2.0973 178.549 2.4607 178.502 2.818L178.159 25.9498ZM173.759 24.8433L174.102 3.7664H168.042L167.7 24.8433H173.759Z" fill="#010101"/>
<path d="M196.813 28.2155C196.807 28.5765 196.718 28.9314 196.553 29.2524C196.387 29.5733 196.15 29.8518 195.859 30.066C195.569 30.2802 195.232 30.4243 194.877 30.4872C194.521 30.5501 194.156 30.53 193.809 30.4286L184.299 29.1376C183.942 29.1379 183.591 29.056 183.271 28.8984C182.952 28.7407 182.673 28.5116 182.456 28.2287C182.24 27.9459 182.091 27.6169 182.022 27.2674C181.953 26.9178 181.966 26.5571 182.059 26.2132L185.194 3.2922C185.193 2.933 185.275 2.5784 185.434 2.2563C185.593 1.9343 185.825 1.6536 186.111 1.4365C186.397 1.2193 186.73 1.0716 187.083 1.005C187.436 0.938403 187.799 0.954802 188.145 1.0527L197.63 2.3437C197.992 2.3408 198.35 2.4209 198.677 2.578C199.003 2.7351 199.289 2.9649 199.513 3.2498C199.737 3.5347 199.893 3.8672 199.968 4.2216C200.044 4.5761 200.037 4.9431 199.948 5.2945L196.813 28.2155ZM192.571 26.5821L195.417 5.716L189.436 4.8993L186.564 25.7653L192.571 26.5821Z" fill="#010101"/>
<path d="M218.442 10.9325L213.727 9.7206L207.614 33.432L203.373 32.3518L209.458 8.6404L204.743 7.4285L205.691 3.7927L219.365 7.2967L218.442 10.9325Z" fill="#010101"/>
<path d="M229.244 38.3591C229.153 38.7069 228.984 39.0292 228.749 39.3012C228.514 39.5731 228.219 39.7874 227.888 39.9275C227.557 40.0675 227.198 40.1296 226.84 40.1089C226.481 40.0882 226.131 39.9853 225.819 39.8081L216.861 36.3568C216.514 36.2785 216.19 36.1206 215.914 35.8954C215.639 35.6702 215.419 35.3839 215.274 35.0592C215.128 34.7346 215.06 34.3805 215.075 34.0249C215.09 33.6694 215.187 33.3222 215.359 33.0108L223.685 11.4071C223.767 11.0591 223.928 10.7349 224.156 10.4595C224.384 10.1842 224.672 9.9653 224.998 9.8199C225.325 9.6745 225.681 9.6066 226.038 9.6214C226.395 9.6362 226.744 9.7334 227.057 9.9053L235.988 13.3567C236.344 13.4322 236.677 13.5894 236.962 13.8159C237.246 14.0423 237.474 14.3318 237.627 14.6614C237.78 14.991 237.855 15.3518 237.845 15.7152C237.835 16.0786 237.74 16.4347 237.569 16.7553L229.244 38.3591ZM225.503 35.7245L233.064 16.0967L227.426 13.9099L219.838 33.5641L225.503 35.7245Z" fill="#010101"/>
<path d="M245.842 47.0265C245.703 47.3628 245.489 47.6627 245.215 47.9028C244.942 48.1429 244.616 48.3168 244.265 48.4111C243.913 48.5053 243.545 48.5174 243.188 48.4463C242.831 48.3753 242.495 48.223 242.206 48.0013L233.96 43.5488C233.622 43.4248 233.317 43.2245 233.068 42.9635C232.82 42.7025 232.635 42.3878 232.528 42.0438C232.421 41.6998 232.395 41.3357 232.451 40.9799C232.508 40.6241 232.645 40.2861 232.854 39.9921L245.052 17.3345L248.951 19.4422L237.148 41.1513L242.417 43.9967L254.168 22.2875L258.04 24.3952L245.842 47.0265Z" fill="#010101"/>
<path d="M272.241 38.5698L268.263 35.7508L254.088 55.8528L250.479 53.2182L264.653 33.1425L260.701 30.3235L262.862 27.2673L274.401 35.4083L272.241 38.5698Z" fill="#010101"/>
<path d="M283.808 159.45V159.454C283.937 182.148 277.325 204.37 264.81 223.302C252.295 242.234 234.442 257.025 213.512 265.799C192.581 274.573 169.518 276.936 147.243 272.587C124.969 268.239 104.487 257.375 88.394 241.373C72.301 225.371 61.321 204.952 56.8459 182.703C52.3709 160.454 54.6022 137.377 63.257 116.397C71.912 95.417 86.601 77.48 105.462 64.858C124.322 52.2354 146.506 45.4971 169.201 45.4968H169.205C199.512 45.4139 228.612 57.3722 250.103 78.742C271.595 100.111 283.718 129.142 283.808 159.45Z" fill="url(#paint0_radial_26_41)"/>
<path d="M169.201 43.9982V43.9968M283.808 159.45V159.454C283.937 182.148 277.325 204.37 264.81 223.302C252.295 242.234 234.442 257.025 213.512 265.799C192.581 274.573 169.518 276.936 147.243 272.587C124.969 268.239 104.487 257.375 88.394 241.373C72.301 225.371 61.321 204.952 56.8459 182.703C52.3709 160.454 54.6022 137.377 63.257 116.397C71.912 95.417 86.601 77.48 105.462 64.858C124.322 52.2354 146.506 45.4971 169.201 45.4968H169.205C199.512 45.4139 228.612 57.3722 250.103 78.742C271.595 100.111 283.718 129.142 283.808 159.45Z" stroke="white" stroke-width="3"/>
<g opacity="0.25">
<path d="M106.841 224.546C74.277 195.302 58.7853 156.046 63.738 123.509C48.484 160.13 60.05 207.079 95.196 238.668C132.08 271.785 182.902 277.265 217.942 254.739C185.51 266.384 141.512 255.713 106.841 224.546Z" fill="#993320"/>
</g>
<path d="M220.121 55.6172C220.121 55.6172 249.688 82.146 225.977 103.381C209.431 118.161 165.829 116.554 165.829 116.554C165.829 116.554 85.986 111.17 54.1866 144.234L53.5762 149.325C53.5762 149.325 69.635 120.741 177.421 124.168C177.421 124.168 245.183 124.932 240.335 85.096C239.031 74.382 233.79 66.978 227.173 59.385C223.514 57.2556 220.121 55.6172 220.121 55.6172Z" fill="white"/>
<path d="M269.552 101.442C269.552 101.442 236.963 150.408 151.549 198.753C104.399 224.209 84.858 225.532 77.141 226.324C76.202 226.42 74.017 226.6 74.017 226.6L77.664 231.615C77.664 231.615 111.563 229.717 157.688 203.1C204.926 173.092 248.255 141.204 271.676 105.216L269.552 101.442Z" fill="white"/>
<path d="M285.075 152.41C285.075 152.41 276.817 144.821 268.973 149.942C250.636 161.913 240.394 181.875 222.993 218.995C199.553 261.895 176.277 273.133 165.264 276.216H173.69C173.69 276.216 201.839 274.298 229.575 220.156C229.575 220.156 241.421 192.191 257.143 170.926C268.973 157.167 272.258 147.861 285.312 158.87L285.219 155.25L285.075 152.41Z" fill="white"/>
<path d="M107.767 61.579C107.767 61.579 174.63 36.2121 243.657 130.989C243.657 130.989 266.998 152.191 266.998 223.571L271.187 214.745C271.187 214.745 278.222 154.419 233.434 109.025C200.907 67.323 157.592 47.9854 117.203 56.2557L112.36 58.873L107.767 61.579Z" fill="white"/>
<path d="M268.948 186.446L267.559 182.217L266.106 186.424L248.011 238.795L192.59 238.976L188.139 238.99L191.691 241.673L235.919 275.07L218.962 327.828L217.6 332.067L221.25 329.516L266.666 297.774L311.618 330.215L315.229 332.82L313.931 328.561L297.775 275.544L342.494 242.819L346.087 240.19L341.636 240.109L286.241 239.101L268.948 186.446Z" fill="#010101" stroke="white" stroke-width="3"/>
<path fill-rule="evenodd" clip-rule="evenodd" d="M267.09 232.295C269.099 235.92 270.346 240.331 273.071 243.241C275.75 243.01 276.673 241.047 278.798 240.239C277.92 245.873 275.634 251.369 276.05 257.42C279.699 256.75 281.546 252.132 284.271 249.707C284.779 255.619 290.968 254.002 295.217 252.455C294.224 255.734 290.598 263.17 295.979 264.14C293.634 266.391 291.134 268.474 288.497 270.375C286.58 271.991 281.8 275.132 281.569 277.095C281.338 279.058 282.978 280.12 283.324 282.083C278.59 281.39 273.51 279.773 268.891 279.773C268.652 283.379 268.986 294.93 269.334 298.017H266.66H264.411L264.893 288.938C264.893 288.938 265.304 281.967 265.304 279.773C260.385 280.42 255.798 281.09 251.11 281.967C251.11 280.097 252.934 279.127 252.865 277.349C252.865 275.039 248.062 272.153 245.937 270.421C242.82 267.858 240.441 265.641 238.224 264.186C239.102 263.516 240.533 263.308 241.203 262.454C241.283 258.948 240.606 255.467 239.217 252.247C243.281 253.679 249.655 255.595 249.909 249.499C252.772 251.97 254.528 255.595 257.876 257.466C259.469 254.972 257.876 251.577 257.391 248.76C256.906 245.943 256.259 242.756 255.636 240.031C257.599 240.885 258.707 242.617 261.109 243.033C264.065 240.562 265.312 236.151 267.09 232.295Z" fill="url(#paint1_linear_26_41)" stroke="white" stroke-width="2"/>
<defs>
<radialGradient id="paint0_radial_26_41" cx="0" cy="0" r="1" gradientUnits="userSpaceOnUse" gradientTransform="translate(169.188 159.315) scale(115.742 115.742)">
<stop stop-color="#C83D27"/>
<stop offset="0.31" stop-color="#CF3F26"/>
<stop offset="0.75" stop-color="#E14424"/>
<stop offset="1" stop-color="#EF4823"/>
</radialGradient>
<linearGradient id="paint1_linear_26_41" x1="266.98" y1="232.295" x2="266.98" y2="289.126" gradientUnits="userSpaceOnUse">
<stop stop-color="#C83D27"/>
<stop offset="0.29" stop-color="#D94225"/>
<stop offset="0.69" stop-color="#E94624"/>
<stop offset="1" stop-color="#EF4823"/>
</linearGradient>
</defs>
</svg>
