<svg width="233" height="234" viewBox="0 0 233 234" fill="none" xmlns="http://www.w3.org/2000/svg">
<path d="M230.808 116.45V116.454C230.937 139.148 224.325 161.37 211.81 180.302C199.295 199.234 181.442 214.025 160.512 222.799C139.581 231.573 116.518 233.936 94.243 229.587C71.969 225.239 51.487 214.375 35.394 198.373C19.301 182.371 8.32099 161.952 3.84589 139.703C-0.629113 117.454 1.60219 94.377 10.257 73.397C18.912 52.417 33.601 34.48 52.462 21.858C71.322 9.23542 93.506 2.49713 116.201 2.49683H116.205C146.512 2.41393 175.612 14.3722 197.103 35.742C218.595 57.111 230.718 86.142 230.808 116.45ZM116.201 0.998222V0.996826V0.998222Z" fill="#D9D9D9" stroke="white" stroke-width="3"/>
<g opacity="0.25">
<path d="M53.841 181.546C21.277 152.302 5.7853 113.046 10.738 80.509C-4.516 117.13 7.05 164.079 42.196 195.668C79.08 228.785 129.902 234.265 164.942 211.739C132.51 223.384 88.512 212.713 53.841 181.546Z" fill="white"/>
</g>
<path d="M167.121 12.6172C167.121 12.6172 196.688 39.146 172.977 60.381C156.431 75.161 112.829 73.554 112.829 73.554C112.829 73.554 32.986 68.17 1.18657 101.234L0.576172 106.325C0.576172 106.325 16.635 77.741 124.421 81.168C124.421 81.168 192.183 81.932 187.335 42.096C186.031 31.382 180.79 23.978 174.173 16.385C170.514 14.2556 167.121 12.6172 167.121 12.6172Z" fill="white"/>
<path d="M216.552 58.442C216.552 58.442 183.963 107.408 98.549 155.753C51.399 181.209 31.858 182.532 24.141 183.324C23.202 183.42 21.017 183.6 21.017 183.6L24.664 188.615C24.664 188.615 58.563 186.717 104.688 160.1C151.926 130.092 195.255 98.204 218.676 62.216L216.552 58.442Z" fill="white"/>
<path d="M232.075 109.41C232.075 109.41 223.817 101.821 215.973 106.942C197.636 118.913 187.394 138.875 169.993 175.995C146.553 218.895 123.277 230.133 112.264 233.216H120.69C120.69 233.216 148.839 231.298 176.575 177.156C176.575 177.156 188.421 149.191 204.143 127.926C215.973 114.167 219.258 104.861 232.312 115.87L232.219 112.25L232.075 109.41Z" fill="white"/>
<path d="M54.767 18.5791C54.767 18.5791 121.63 -6.78785 190.657 87.9891C190.657 87.9891 213.998 109.191 213.998 180.571L218.187 171.745C218.187 171.745 225.222 111.419 180.434 66.025C147.907 24.323 104.592 4.98545 64.203 13.2558L59.36 15.8731L54.767 18.5791Z" fill="white"/>
</svg>
