<svg width="390" height="124" viewBox="0 0 390 124" fill="none" xmlns="http://www.w3.org/2000/svg">
<path fill-rule="evenodd" clip-rule="evenodd" d="M154.456 75.0331C153.439 77.1346 150.996 79.0674 150.996 79.0674C150.996 79.0674 153.446 80.9869 154.478 83.0928C155.563 80.9869 157.942 79.0541 157.942 79.0541C157.942 79.0541 155.55 77.1368 154.456 75.0331V75.0331ZM236.121 74.7868C235.098 76.8838 232.666 78.8078 232.666 78.8078C232.657 78.8078 235.098 80.7405 236.13 82.842C237.209 80.7405 239.61 78.8078 239.61 78.8078C239.61 78.8078 237.204 76.8838 236.121 74.7868ZM209.965 96.5824C210.061 96.8376 210.061 97.2415 209.93 97.3924C209.513 97.8828 208.643 97.7053 208.352 97.7252C208.066 97.7297 207.46 97.8029 207.46 98.4797C207.46 99.4805 208.82 99.1654 210.451 99.1654C210.864 99.1654 222.257 99.2786 222.257 99.2786C224.207 99.2786 225 99.192 225 98.4376C225 97.7053 224.4 97.7053 224.072 97.7053C223.544 97.7053 222.685 97.6786 221.806 97.4745C220.592 97.1527 219.059 96.1431 217.117 91.0303C215.129 85.8644 211.643 75.6389 208.654 67.4284C206.308 60.9354 204.657 55.5076 204.074 54.0497C203.515 52.6406 202.855 51.7973 202.232 51.7973H202.032C201.438 51.753 200.328 51.6908 199.678 53.4084C199.678 53.415 185.471 92.2996 185.471 92.2996C184.289 95.5506 184.091 97.2659 181.77 97.5965L180.916 97.7053C180.7 97.7053 180.044 97.7053 180.044 98.4376C180.044 99.2786 180.82 99.2786 181.288 99.2786L184.963 99.1233L186.159 99.0878L192.823 99.2786C193.207 99.2786 193.975 99.2786 193.975 98.4376C193.975 97.7741 193.484 97.7053 192.936 97.7053H192.113C190.333 97.7053 190.114 96.8376 190.114 96.072C190.114 95.413 190.364 94.0039 190.919 92.4883C190.919 92.4883 199.986 65.5 200.017 65.4379C200.028 65.5355 209.965 96.5824 209.965 96.5824V96.5824ZM146.343 60.7535L146.09 60.8333C146.07 60.8333 144.148 61.1307 144.148 61.1307C143.378 61.1706 135.301 61.1795 132.154 61.1795L129.602 61.1218L125.621 61.022C125.182 61.022 124.46 61.022 124.46 61.6833C124.46 62.3068 125.111 62.3068 125.397 62.3068C126.096 62.3068 126.138 62.3712 126.449 62.4533C127.898 62.795 127.987 63.5473 128.078 65.1073C128.157 66.6917 128.157 68.0586 128.157 75.6389V84.3798C128.157 88.9444 128.157 92.8655 127.942 94.947C127.745 96.5114 127.354 97.2792 126.957 97.5078C126.413 97.6343 125.89 97.7075 125.357 97.7075C125.137 97.7075 124.46 97.7075 124.46 98.3066C124.46 98.7527 124.827 98.9968 125.535 98.9968L129.533 98.9102L131.928 98.8459L135.365 98.9413C137.551 99.0323 140.944 99.1321 145.167 99.1321C146.9 99.1321 147.428 99.1321 147.767 97.7097C148.007 96.6779 148.364 93.2893 148.364 92.1443C148.364 91.6495 148.364 91.0481 147.827 91.0481C147.37 91.0481 147.255 91.4475 147.177 91.9579C146.862 93.9728 146.336 94.5143 145.222 95.069C144.084 95.6549 141.496 95.6549 140.36 95.6549C135.7 95.6549 135.172 95.2687 135.074 92.08V80.4587C135.074 80.1592 135.132 80.1592 135.19 80.1592C136.213 80.1592 138.057 80.2058 138.927 80.3012C140.72 80.5186 141.146 81.3796 141.314 82.0964L141.463 83.0284L141.49 83.5055C141.49 83.8916 141.7 84.1246 142.062 84.1246C142.635 84.1246 142.635 83.3835 142.635 82.9752C142.635 82.6423 142.737 80.9891 142.819 80.0238C142.869 78.9599 142.973 77.8993 143.132 76.8461L143.189 76.3779C143.189 75.9962 143.014 75.7921 142.69 75.7921C142.413 75.7921 142.206 76.0339 141.913 76.4156L141.856 76.5066C141.483 76.9482 140.837 77.0658 139.788 77.1656C139.113 77.2389 137.821 77.2788 135.236 77.2788C135.13 77.2788 135.074 77.2788 135.074 76.9326V64.3572C135.074 64.0599 135.145 64.0599 135.236 64.0599C136.086 64.0599 141.561 64.142 142.335 64.2529C144.572 64.5503 144.951 65.1184 145.229 65.9172C145.442 66.452 145.488 67.2531 145.488 67.6326C145.488 67.85 145.488 68.5202 146.063 68.5202C146.565 68.5202 146.66 67.992 146.687 67.8234L146.864 65.5466L146.913 64.517C147.006 62.9969 147.144 62.2269 147.215 61.7742L147.286 61.2705C147.286 60.7379 147.044 60.6336 146.851 60.6336L146.343 60.7535L146.156 61.2039L146.343 60.7535V60.7535ZM304.167 61.1063L301.644 61.1773L299.092 61.1063L295.763 61.0197C295.148 61.0197 294.503 61.073 294.503 61.6211C294.503 62.3068 295.148 62.3068 295.404 62.3068C296.009 62.3068 296.56 62.3712 296.995 62.5065C297.918 62.7284 298.149 63.4807 298.235 65.1073C298.322 66.6917 298.322 68.0586 298.322 75.6389V84.3798C298.322 89.2551 298.322 93.1185 298.091 95.1977C297.949 96.7533 297.818 97.348 297.09 97.5078C296.549 97.6343 296.025 97.7075 295.49 97.7075C295.268 97.7075 294.589 97.7075 294.589 98.3066C294.589 98.7527 294.962 98.9968 295.663 98.9968L299.26 98.9102L301.38 98.8459L303.694 98.8925L309.129 98.9968C310.069 98.9968 310.174 98.5108 310.174 98.3066C310.174 98.0293 310.014 97.7075 309.264 97.7075C308.596 97.7075 307.604 97.6076 306.976 97.5078C305.758 97.3391 305.447 96.5713 305.312 95.2488C305.13 93.1163 305.13 89.2551 305.13 84.3798V75.6389C305.13 68.0586 305.13 66.6917 305.216 65.1073C305.312 63.3076 305.689 62.6752 306.759 62.4533L308.099 62.3068C308.336 62.3068 308.982 62.3068 308.982 61.6211C308.982 61.0198 308.201 61.0197 307.877 61.0197L304.167 61.1063V61.1063ZM314.743 69.572C314.743 76.1604 320.073 80.299 322.006 81.9233C323.925 83.5366 328.658 87.593 328.658 89.6301C328.658 93.5179 327.03 95.9877 323.224 95.9877C319.895 95.9877 317.186 94.3101 316.367 91.4631C316.13 90.6176 315.917 89.6567 315.917 89.1131C315.917 88.2987 315.666 87.7772 315.262 87.7772C314.543 87.7772 314.386 89.0731 314.361 89.4859L314.352 89.5902C314.216 91.6883 314.141 93.7899 314.126 95.8923C314.126 97.1394 314.359 97.5744 315.271 97.9849C317.468 98.9901 319.991 99.5404 322.547 99.5404C324.871 99.5404 328.168 99.1898 330.669 97.5033C332.866 96.0254 334.93 94.1104 334.998 89.2041C335.107 82.3827 329.801 79.7131 327.327 77.6183C324.877 75.5213 320.998 73.2113 320.998 69.0195C320.998 66.1036 322.632 64.2973 325.523 64.2973C328.275 64.2973 329.715 65.3602 330.425 66.2989C331.33 67.4905 331.772 69.1659 331.794 69.4522C331.921 70.3531 332.344 70.7526 332.575 70.6838C333.181 70.5107 333.194 69.4522 333.194 68.8331C333.194 66.148 333.29 64.6923 333.341 63.8091L333.381 63.0103C333.381 62.0316 331.921 61.7742 331.443 61.6189C330.949 61.4613 328.297 60.4761 325.896 60.4761C319.445 60.4783 314.743 63.4585 314.743 69.572V69.572ZM372.82 61.1063L370.623 61.1773L367.858 61.1285L363.116 61.0197C362.721 61.0197 361.993 61.0198 361.993 61.681C361.993 62.3046 362.666 62.3046 362.921 62.3046C363.64 62.3046 364.359 62.3689 364.667 62.4511C366.123 62.7928 366.409 63.545 366.487 65.105C366.582 66.6895 366.582 68.0564 366.582 75.6367V76.6819C366.582 76.7862 366.56 76.8239 366.469 76.8239H350.294C350.248 76.8239 350.186 76.815 350.186 76.6819V75.6367C350.186 68.0564 350.186 66.6895 350.281 65.105C350.372 63.3431 350.763 62.673 351.819 62.4511L353.097 62.3046C353.425 62.3046 354.08 62.3046 354.08 61.681C354.08 61.0198 353.37 61.0197 352.984 61.0197L349.469 61.1063L347.077 61.1773L344.616 61.1285L339.865 61.0197C339.483 61.0197 338.746 61.0198 338.746 61.681C338.746 62.3046 339.405 62.3046 339.687 62.3046C340.397 62.3046 341.11 62.3689 341.42 62.4511C342.876 62.7928 343.158 63.545 343.236 65.105C343.331 66.6895 343.331 68.0564 343.331 75.6367V84.3776C343.331 88.9422 343.331 92.8633 343.105 94.9448C342.905 96.5092 342.676 97.3458 341.913 97.5056C341.394 97.632 340.859 97.7053 340.326 97.7053C340.096 97.7053 339.425 97.7053 339.425 98.3044C339.425 98.7504 339.785 98.9945 340.508 98.9945L344.496 98.908L346.897 98.8437L349.056 98.8903L354.144 98.9945C355.085 98.9945 355.223 98.5663 355.223 98.3044C355.223 98.027 355.068 97.7053 354.326 97.7053C353.645 97.7053 352.662 97.6054 352.034 97.5056C350.856 97.3369 350.57 96.5003 350.414 94.9914C350.183 92.8633 350.183 88.94 350.183 84.3776V80.998C350.183 80.9247 350.183 80.907 350.292 80.907H366.467C366.502 80.907 366.58 80.907 366.58 80.998V84.3776C366.58 88.9422 366.58 92.8633 366.354 94.9448C366.15 96.5092 365.912 97.3458 365.171 97.5056C364.634 97.632 364.106 97.7053 363.562 97.7053C363.349 97.7053 362.679 97.7053 362.679 98.3044C362.679 98.9945 363.516 98.9945 363.802 98.9945L367.736 98.908L370.441 98.8437L372.587 98.8903L377.498 98.9945C378.456 98.9945 378.585 98.5663 378.585 98.3044C378.585 98.027 378.439 97.7053 377.698 97.7053C377.021 97.7053 376.029 97.6054 375.396 97.5056C374.227 97.3369 373.936 96.5003 373.772 94.9914C373.563 92.8633 373.563 88.94 373.563 84.3776V75.6367C373.563 68.0564 373.563 66.6895 373.641 65.105C373.732 63.3054 374.109 62.673 375.179 62.4511L376.47 62.3046C376.788 62.3046 377.453 62.3046 377.453 61.681C377.453 61.0198 376.717 61.0197 376.335 61.0197L372.82 61.1063V61.1063Z" fill="#236AB3"/>
<path fill-rule="evenodd" clip-rule="evenodd" d="M292.889 52.4453L292.044 52.4875L291.181 52.4519L286.361 52.3166C285.879 52.3166 284.956 52.3166 284.956 53.04C284.956 53.5082 285.373 53.7745 286.053 53.7745C288.245 53.7745 288.513 54.6754 288.489 55.3789C288.442 57.4138 281.446 78.0155 280.609 80.6385C280.263 79.8107 271.411 58.6431 269.627 54.2738C269.245 53.3373 269.017 52.1124 267.989 52.139C267.157 52.1524 266.776 52.7382 266.234 54.3071C257.558 79.2515 257.402 78.8699 256.486 81.4484C253.022 69.6253 250.887 63.119 250.297 60.5648L249.942 59.1469C249.478 57.2362 249.096 55.7362 249.096 55.1414C249.096 54.4646 249.214 54.1784 249.596 53.9986C249.951 53.7745 250.463 53.7745 250.887 53.7745C251.282 53.7745 252.037 53.7745 252.037 53.04C252.037 52.3166 251.054 52.3166 250.736 52.3166L244.447 52.4519L243.333 52.4875L242.333 52.4519L237.022 52.3166C236.576 52.3166 235.662 52.3166 235.662 53.04C235.662 53.7745 236.277 53.7745 236.694 53.7745C237.249 53.7745 238.254 53.9076 238.795 54.2716C239.446 54.7953 240.018 56.0424 240.728 58.4035L252.265 96.274C252.971 98.2622 253.617 98.5973 254.029 98.5884C254.529 98.5884 255.134 98.3466 256.018 96.274C258.172 91.159 264.738 72.2193 266.554 66.8936C266.758 67.4572 277.514 95.5772 277.514 95.5772C278.346 97.8229 278.597 98.6018 279.351 98.6018C280.274 98.6018 280.52 97.7052 281.088 95.6903C283.998 85.9464 289.541 67.5371 291.966 60.2786L292.417 58.9205C293.253 56.3375 293.868 54.4979 294.918 54.0519C295.55 53.8011 296.349 53.7745 296.773 53.7745C297.541 53.7745 297.692 53.3351 297.692 52.9778C297.692 52.3166 296.864 52.3166 296.542 52.3166L292.889 52.4453ZM326.333 0C327.928 1.48233 326.373 1.74639 326.402 2.78713C326.144 2.79113 325.887 2.80074 325.629 2.81598C325.629 2.71391 325.452 2.52973 325.374 2.52973C325.374 2.07926 325.352 1.61324 325.339 1.13393C325.678 0.756686 326.011 0.37724 326.333 0ZM325.425 4.76875H325.663C325.516 5.72517 325.354 6.67493 325.203 7.62691C325.243 8.41467 325.263 9.198 325.29 9.9791C324.871 12.0362 323.599 14.0156 323.643 16.3034C323.821 16.299 323.99 16.299 324.134 16.299C326.786 16.8072 329.131 14.1864 331.923 14.1132V13.8358C332.247 13.6361 333.174 13.3854 333.168 12.9549L333.662 12.9527C333.667 13.0459 333.671 13.1346 333.671 13.2256C333.585 13.2256 333.516 13.2256 333.429 13.2345C333.429 13.696 333.452 14.1643 333.452 14.6436C333.019 14.8278 332.58 15.043 332.134 15.2538C331.705 15.762 331.279 16.2835 330.855 16.7783C330.192 17.4019 328.228 18.0254 328.259 19.2548C326.976 18.9596 326.1 19.3968 325.152 20.3288C324.671 20.7815 324.007 21.3052 323.865 22.0042C323.61 23.1714 325.297 27.4187 325.902 28.3796C327.008 30.1615 328.508 31.0802 328.55 33.5123C326.539 33.1505 326.626 31.9034 325.53 30.4011C324.689 29.2272 321.123 26.7264 319.818 26.7619C319.31 27.7272 318.522 28.4239 317.967 29.3848C317.63 30.339 317.29 31.2954 316.949 32.2363C316.593 32.5669 316.234 32.9198 315.883 33.2437C315.264 34.3156 314.647 35.3985 314.028 36.4636C313.491 37.6197 313.07 37.8239 312.415 38.8047C311.987 39.4283 310.933 39.9098 310.187 39.9409C309.97 39.5681 308.922 37.7862 310.209 38.1701C310.56 38.261 310.933 35.8844 310.933 35.9754C311.769 35.3696 314.23 31.808 312.593 30.8849C312.719 30.5676 312.73 30.3146 313.096 30.3146C313.074 29.9129 312.897 29.2073 313.318 29.2006C313.318 29.2872 315.082 28.0977 315.056 27.4742C315.038 27.0015 315.488 25.7766 315.02 25.7877C315.02 25.7034 315.02 25.6035 315.016 25.5081C313.979 25.6412 312.852 25.7389 311.987 26.1472C310.908 26.6665 309.732 28.1754 308.503 28.2154C308.343 28.2176 308.179 28.2176 307.992 28.2309C307.624 26.3114 308.234 25.4193 309.974 25.3683C310.515 25.0155 311.052 24.6604 311.578 24.3009C312.839 23.4532 314.47 21.7668 315.193 20.3088C316.289 18.0587 311.887 11.0376 309.668 11.1042C309.659 10.7114 309.468 10.2831 309.899 10.2565C310.058 9.69285 310.211 9.14252 310.362 8.56334H310.866C310.902 8.73865 311.104 9.37108 311.13 9.39105C311.381 9.46428 311.654 9.3733 311.898 9.35777C312.084 9.57968 312.084 9.63072 312.422 9.6285C312.477 10.7114 313.389 12.1139 314.476 12.0872C314.8 13.5163 319.083 15.1207 319.101 15.8707C319.27 15.8707 319.443 15.8663 319.609 15.8618V15.5845C320.25 14.7412 320.901 13.9179 321.538 13.0791C323.015 10.4318 323.688 7.28517 325.425 4.76875V4.76875ZM307.768 5.55652C308.583 5.83613 309.382 6.70378 308.942 7.81331C308.811 8.17057 308.336 8.48346 308.352 8.89399C308.11 8.65655 308.17 8.61438 307.841 8.62548C307.668 8.19942 306.887 6.69045 307.296 6.6838C307.449 6.31765 307.604 5.92933 307.768 5.55652ZM339.408 9.70172C339.907 9.92363 340.93 10.3031 340.941 11.062C340.069 11.4836 339.323 11.923 338.658 10.8445C338.749 10.8423 338.84 10.8423 338.926 10.8312C339.079 10.4407 339.235 10.0701 339.408 9.70172V9.70172ZM335.893 10.9156C336.392 11.0154 336.907 11.0864 337.41 11.1486C337.41 11.2639 337.411 11.3461 337.424 11.437C337.146 11.9252 337.004 13.3854 336.392 13.4719C335.855 13.5562 334.983 12.3468 335.424 12.3269C335.511 11.9563 335.575 11.5835 335.651 11.1996C335.733 11.1131 335.824 11.0287 335.893 10.9156ZM305.216 27.7383C305.611 27.8182 306.461 27.7693 306.481 28.2664C306.317 28.5038 305.017 30.6874 305.012 29.9773C304.48 29.2206 304.784 28.4084 305.216 27.7383ZM300.197 29.5557C300.96 29.7132 301.715 29.8952 302.471 30.055C302.471 30.1482 302.471 30.2325 302.476 30.3301C302.52 31.7969 299.516 33.297 299.502 32.3717C299.298 32.1586 299.26 32.1631 299.225 31.8191C299.5 31.0602 299.8 30.2258 300.197 29.5557ZM330.853 34.8437C331.08 34.9724 331.357 35.3385 331.339 34.8437C331.512 34.8326 331.685 34.8282 331.858 34.8282C331.721 35.8334 331.741 38.1856 330.412 38.2211V37.9348C330.19 37.5554 329.471 36.0176 329.866 36.0065C330.19 35.6248 330.527 35.2342 330.853 34.8437V34.8437ZM206.805 40.7641C206.961 41.0837 207.66 42.7103 207.018 42.7236C206.524 42.9544 205.25 43.1119 205.276 43.8841C203.812 42.8212 201.32 42.2309 199.647 43.3715C199.456 43.4914 199.132 43.2206 198.965 43.2229C199.256 42.2775 199.711 41.634 200.676 41.4987V41.208C201.014 41.208 200.798 41.0038 200.936 40.935C201.049 40.8684 201.477 41.2568 204.209 41.1347C204.214 41.492 204.131 41.4143 204.469 41.401C205.015 40.9572 205.838 41.3611 206.488 41.35C206.488 41.0659 206.557 41.3145 206.557 41.0482C206.63 40.9452 206.713 40.85 206.805 40.7641ZM197.647 43.3383C197.92 43.1763 198.158 42.6548 198.357 42.1355C198.266 42.1799 198.084 41.8182 197.994 41.8604C197.647 42.049 196.924 41.8604 196.562 42.0468C196.285 42.171 196.363 42.6992 196.114 42.6992C196.101 43.1274 196.01 43.0387 196.409 43.0387C196.396 43.1496 196.396 43.2695 196.396 43.3738C196.993 43.2029 197.323 43.5335 197.647 43.3383V43.3383ZM194.82 43.3649C195.062 43.1297 195.169 43.7266 195.353 42.9943C195.335 43.103 195.304 42.3463 195.202 42.3952C194.862 42.5793 194.536 42.211 194.168 42.3818C193.893 42.5172 193.575 43.2206 193.316 43.2206C193.316 43.6622 192.934 43.7865 193.34 43.7932C193.34 43.9196 193.62 43.7932 193.613 43.8997C194.221 43.7488 194.534 43.629 194.82 43.3649ZM209.251 42.1843C209.542 42.2775 210.746 42.8567 210.769 42.2332C211.09 42.2487 210.937 42.4795 211.264 42.2531C211.823 42.7835 213.782 44.0306 214.497 44.0572C214.843 44.0705 215.178 44.0839 215.502 44.0839C215.393 45.0092 215.966 45.7526 215.935 46.6225C212.974 46.5159 211.25 43.9285 208.45 43.8287C208.45 43.6489 208.454 43.4625 208.463 43.2739C208.554 43.2783 208.641 43.2783 208.709 43.2783L209.251 42.1843V42.1843Z" fill="#236AB3"/>
<path fill-rule="evenodd" clip-rule="evenodd" d="M284.009 80.2568C284.009 80.2568 283.501 80.2302 283.432 80.7561C283.384 81.0425 283.422 81.3365 283.541 81.6015C282.453 83.2925 282.418 81.728 281.949 83.7163C281.703 84.311 281.881 82.6112 281.632 83.2259C281.273 84.6483 281.705 83.7363 281.319 85.1365C280.738 86.8696 280.452 85.3229 279.151 86.6544C278.21 87.6263 278.497 88.9688 277.895 89.1242C276.395 89.5103 275.177 93.3936 274.507 91.8381C273.817 92.2064 273.198 92.4394 272.643 93.1207C272.152 93.7198 271.018 96.9863 270.324 97.0085C269.982 97.1039 269.66 97.2082 269.323 97.3036C269.205 98.9457 267.854 99.1277 267.637 100.992H267.386V101.287C267.077 101.156 266.363 100.537 266.367 101.027C265.948 101.34 263.403 103.936 263.394 103.368C263.056 103.047 262.617 102.501 262.608 101.981C262.366 101.981 262.1 101.981 261.849 101.986C261.221 106.056 257.575 108.517 254.62 110.307C254.156 110.611 253.814 111.463 253.224 111.472C253.224 111.381 253.21 111.286 253.21 111.213C253.31 111.213 253.388 111.195 253.47 111.195C253.47 110.782 253.648 110.054 253.179 110.081C252.933 109.986 252.671 109.912 252.425 109.817C251.675 112.296 249.127 113.283 247.286 114.299C246.857 114.546 246.5 115.023 245.976 115.045C245.976 114.941 245.967 114.859 245.967 114.759C245.963 114.586 245.963 114.399 245.963 114.2C245.694 114.208 245.453 114.213 245.208 114.217C244.771 114.985 243.731 116.596 243.731 116.514C243.549 115.855 243.236 114.732 243.227 114.55C241.64 114.377 241.03 117.979 239.474 118.016C238.01 117.513 233.545 120.704 231.712 120.746C230.911 118.496 227.201 122.375 227.174 121.436C226.761 121.214 226.429 120.903 225.905 120.912C224.727 122.459 224.185 120.977 222.889 120.994C223.107 120.508 223.231 119.763 222.776 119.743C222.326 119.716 221.121 121.09 221.143 122.443C221.074 122.461 220.979 122.461 220.896 122.461C220.679 122.21 220.641 122.292 220.628 121.906C220.395 122.042 220.155 122.401 220.129 121.92C220.038 122.011 220.015 122.15 219.882 122.206C219.683 122.27 217.732 122.179 216.662 122.53C216.185 122.676 215.857 123.153 215.358 123.171C214.461 121.807 212.988 122.752 211.583 122.739C210.988 122.665 210.387 122.583 209.797 122.488C209.564 122.783 209.302 122.905 209.302 123.342C209.302 123.298 209.102 123.424 209.042 123.074C208.991 122.741 208.539 122.923 208.539 122.532C207.274 123.205 200.199 122.446 200.177 121.358C199.831 121.372 199.669 121.223 199.687 121.662C199.378 121.771 198.919 121.809 198.941 122.235C198.764 122.248 198.604 122.248 198.426 122.248C197.707 120.997 197.39 118.642 195.244 118.724C194.822 118.724 194.337 119.574 194.35 120.133C194.267 120.131 194.184 120.135 194.101 120.147C193.56 119.792 193.034 119.878 192.328 119.914C192.02 119.228 191.274 119.536 190.631 119.328C189.918 119.086 189.171 118.469 188.472 118.118C187.522 117.668 186.006 118.118 184.97 118.158C185.056 117.868 185.134 117.586 185.21 117.308C184.819 117.186 183.925 116.372 183.92 115.935H184.153C184.373 115.336 184.641 114.708 184.628 113.962C183.783 113.953 183.101 113.452 182.22 113.816C181.453 114.137 181.013 115.194 180.108 115.211C179.906 112.697 176.007 112.316 176.007 111.415C175.989 111.124 175.985 110.838 175.976 110.56C175.472 110.764 174.975 110.973 174.478 111.166C174.469 110.98 174.469 110.802 174.469 110.616C174.556 110.616 174.633 110.607 174.722 110.607C174.846 109.384 174.995 108.175 175.153 106.945C174.882 106.945 174.633 106.959 174.385 106.981C174.045 107.398 172.905 108.195 172.907 108.692C172.73 108.523 172.654 108.465 172.645 108.146C170.366 106.517 168.777 104.658 167.47 102.126C167.375 102.126 167.306 102.126 167.215 102.13C167.435 101.844 167.71 101.697 167.703 101.276C167.617 101.276 167.535 101.276 167.437 101.293C167.28 101.293 167.109 101.298 166.936 101.311C167.075 100.639 166.747 99.0145 166.865 98.3466C167.515 94.1725 166.099 96.5691 165.078 96.6002C165.114 95.5861 164.657 92.6902 163.487 92.7301C163.487 92.6347 163.478 92.5393 163.478 92.4483C164.202 90.3846 163.19 88.9777 162.946 87.1337C162.99 86.3836 163.478 85.0921 163.17 84.3865C163.01 84.0181 162.735 83.5099 162.278 83.5188V83.2326C162.54 82.9374 162.611 82.6778 163.021 82.6556C163.01 82.2828 163.09 82.3738 162.748 82.3827C162.555 81.9588 161.989 81.5061 161.971 81.0046C162.309 80.9048 163.913 81.5816 163.953 80.441C163.591 79.4624 161.98 79.023 161.98 79.023C162.096 78.841 162.262 78.8189 162.278 78.7234C162.307 78.6103 162.176 78.4327 162.517 78.4283C162.693 78.4194 162.502 78.1908 162.673 78.1908C162.617 77.6272 162.276 75.5258 163.485 73.5397C163.72 73.0715 162.986 72.8429 162.986 72.0574C162.986 71.1986 164.033 70.5795 163.458 67.8057C164.73 67.1843 164.843 64.7012 166.416 64.6479C166.33 64.2729 166.232 63.9045 166.146 63.5384C166.45 63.3165 167.022 62.6796 167.397 62.6597C167.317 62.238 166.885 60.9909 167.351 60.9887C167.659 60.6869 167.954 60.3718 168.249 60.0811C168.926 59.1269 169.248 57.6446 170.158 56.8213C171.245 55.8449 173.125 54.3559 173.224 52.5563C173.247 52.4608 173.406 52.5563 173.482 52.5563V52.6961C173.837 52.7804 174.167 52.878 174.498 52.9468C174.62 52.5252 175.663 49.8157 175.685 50.6701C175.778 50.6701 175.85 50.6701 175.932 50.659C176.014 50.5791 176.238 50.6101 176.185 50.659C179.052 47.8141 177.418 48.755 179.992 48.6796C179.992 48.5864 180.15 48.4 180.23 48.4C180.327 48.1225 180.326 47.8199 180.226 47.5434C180.723 47.5256 181.231 47.5256 181.728 47.5079C182.28 46.4982 183.43 46.8222 184.459 46.8C184.446 46.516 184.446 46.2319 184.435 45.9656V45.3931C184.779 45.3798 184.939 45.5573 184.934 45.0936C185.343 45.0936 185.775 45.078 186.197 45.0691C186.181 44.9693 186.181 44.8783 186.181 44.7851C186.938 44.865 187.697 44.9338 188.46 44.9959C188.8 44.8916 189.137 44.794 189.468 44.6875C189.468 44.7851 189.477 45.0913 189.477 44.9959C189.477 45.078 189.237 45.1402 189.246 45.2378C187.724 46.0566 186.051 46.9531 184.599 47.9251C183.809 48.4155 181.462 50.4748 181.537 49.9888C181.69 48.8881 180.314 51.0762 179.644 51.9349C178.91 52.8647 177.805 53.6924 177.099 54.5268C176.668 55.0194 177.134 55.3234 176.664 55.7317C176.253 56.0713 174.858 57.3162 174.425 58.0085C173.684 59.2068 173.963 61.9274 173.089 61.863C172.05 61.7831 171.842 63.7137 172.417 63.7026C172.417 63.889 172.421 64.0687 172.426 64.2551C171.702 64.6191 170.628 65.4801 170.939 66.9535C169.454 66.9535 170.586 68.1296 170.468 68.7266C170.468 68.9596 170.77 70.0669 170.357 70.4219C169.949 70.7681 169.51 71.2274 169.494 71.4915C169.334 71.9153 169.922 72.7364 169.641 73.3111C169.365 73.9058 169.086 73.7394 168.924 74.1477C168.897 74.829 169.25 74.9799 169.228 75.6389C169.128 76.0428 168.045 76.6841 168.507 77.1168C169.077 77.645 168.498 78.1664 168.418 78.5348C168.325 79.003 169.541 79.4934 169.126 80.4898C168.664 81.6126 168.547 82.1075 168.715 82.5047C169.126 83.45 169.21 83.0728 169.332 84.3954C169.379 84.9324 168.955 85.5781 169.117 85.5781C169.88 85.9509 169.61 87.7839 171.183 87.7506C171.183 87.9281 171.194 88.1189 171.207 88.3053C170.712 88.6005 170.428 89.4371 170.309 90.0384C170.16 90.7929 170.076 91.4165 170.415 92.0356C170.826 92.7634 171.995 93.1318 171.948 93.8219C171.902 94.7096 172.002 95.1001 172.463 95.6549C172.829 96.0743 172.368 96.5735 173.031 96.9597C173.642 97.3103 174.314 97.7452 175.024 98.8104C175.244 99.2342 174.969 100.153 175.392 100.288C176.515 100.634 177.021 101.411 177.066 102.967C177.871 102.953 178.355 103.217 179.089 103.2C179.147 105.709 179.782 104.673 180.944 105.696C181.686 107.764 182.03 107.88 183.987 107.815V108.097C183.894 108.474 183.834 108.943 184.262 108.925C185.9 109.713 187.062 111.37 189.095 111.313C189.197 111.69 189.284 112.063 189.377 112.427C191.088 112.44 191.507 114.044 192.943 114.004C193.067 113.64 193.058 113.445 193.451 113.427V113.709C194.039 113.64 195.213 113.947 195.226 114.783C195.783 114.732 197.761 114.657 197.761 115.269C198.324 115.296 202.068 115.997 202.072 116.266C202.381 116.206 202.332 116.516 202.336 116.816H202.831V116.534C203.044 116.283 203.335 116.026 203.335 115.684C203.408 115.671 203.577 115.853 203.577 115.944C203.672 116.226 203.772 116.512 203.854 116.776C205.314 116.325 206.359 114.799 206.592 115.021C206.996 115.766 207.289 117.231 208.394 117.209C208.394 117.113 208.394 117.027 208.39 116.918C208.689 116.676 208.953 116.35 209.395 116.345C209.646 116.332 210.063 116.15 210.145 116.323C210.232 116.492 210.154 116.51 210.154 116.592C210.476 116.592 210.396 116.297 210.396 116.297C210.396 116.297 210.638 116.123 210.638 116.024C210.742 116.024 210.811 116.015 210.906 116.015C210.906 116.115 210.92 116.201 211.006 116.274C211.084 116.33 212.726 116.252 213.68 116.223C213.693 117.306 214.222 117.874 215.218 117.857V117.57C215.369 117.315 215.699 116.847 215.695 116.43C215.959 116.589 216.35 116.984 216.718 116.98V116.689C216.887 116.481 216.973 116.43 216.944 116.121C217.282 116.272 217.452 116.221 217.468 116.667C217.945 116.889 218.174 117.217 218.742 117.186C218.742 117.082 218.742 117.013 218.737 116.913C218.902 116.905 219.083 116.905 219.241 116.905C219.882 116.987 221.764 116.874 221.742 116.081C221.737 115.999 221.924 115.886 221.997 115.99C222.15 116.239 222.243 116.519 222.27 116.809C222.525 116.809 222.825 116.8 222.929 116.645C223.064 116.467 222.956 116.163 223.007 116.081C223.051 116.03 223.233 116.03 223.258 116.081C223.275 116.128 223.275 116.121 223.275 116.199C225.19 116.822 225.13 115.054 226.267 115.029C226.548 115.134 227.789 115.615 227.776 114.983C227.875 114.978 227.962 114.978 228.048 114.978C228.266 114.843 228.781 114.393 229.032 114.393V114.674C229.751 114.783 230.418 115.467 231.069 115.447C231.224 115.1 231.393 114.606 231.805 114.588C231.805 114.497 231.805 114.406 231.801 114.311C232.287 114.579 232.979 115.116 233.603 115.098C233.803 114.777 234.075 114.699 234.062 114.253C234.379 114.339 235.094 114.752 235.072 114.222C235.349 114.035 235.58 113.74 235.587 114.204C235.742 114.2 235.924 114.191 236.095 114.191C237.136 112.859 237.16 113.041 238.591 112.999C239.042 112.127 241.833 111.126 241.816 110.103H242.066C242.958 110.611 243.708 110.614 244.849 110.58C244.849 110.494 244.849 110.403 244.84 110.298C244.922 109.917 245.009 109.302 245.066 109.171C245.118 109.053 245.204 108.953 245.313 108.885C245.408 108.841 245.504 108.885 245.564 108.885C245.772 109.131 245.983 109.431 246.345 109.413C246.496 108.858 246.662 108.29 246.808 107.722C246.982 107.722 247.463 108.272 247.818 108.255C247.905 107.895 248.238 107.409 247.8 107.414C249.105 106.89 250.643 107.176 251.848 106.522C253.295 105.385 254.735 104.252 256.177 103.106C256.65 102.638 257.127 102.143 257.586 101.693C258.35 101.174 259.874 101.207 260.789 101.178C260.789 101.087 261.057 100.983 261.035 100.619C261.39 100.601 261.785 100.397 261.785 100.861C262.362 100.075 262.908 99.3008 263.462 98.4997C264.545 97.1483 266.527 96.8909 267.233 95.1112C267.319 95.1067 267.397 95.1068 267.492 95.1068C267.5 95.2049 267.503 95.3034 267.501 95.4019C267.825 95.3841 268.174 95.3708 268.493 95.3575V95.089C268.826 95.089 268.744 95.1622 268.735 94.8072C268.652 94.5243 268.561 94.2439 268.462 93.9662C268.904 93.8108 270.213 93.4158 270.213 92.7923C270.348 92.5238 270.641 92.2331 270.2 92.2375C270.195 91.8647 270.109 91.9601 270.433 91.9601C270.697 91.8137 271.442 91.3743 271.442 91.9246C271.538 91.9246 271.615 91.9113 271.702 91.9113C272.048 90.9283 276.464 87.0915 275.121 85.5715L277.427 82.7843C280.769 83.379 283.356 76.7218 283.392 78.7589C283.652 78.7545 283.978 78.5459 284.155 78.7279C284.339 78.952 284.009 80.2568 284.009 80.2568V80.2568ZM308.769 41.6274C310.001 42.1999 309.828 43.0365 309.852 44.399C308.401 44.4389 308.052 48.1403 307.602 49.332C307.116 50.6412 305.529 52.7205 304.415 53.3241C303.9 53.5859 303.292 53.2641 302.715 53.2775V52.9934C302.897 52.7449 302.866 52.7183 303.21 52.7072C303.423 50.3039 305.871 47.3237 305.833 45.6372C306.25 45.615 307.356 45.7881 307.342 45.3132C307.937 44.2725 308.075 43.6223 308.035 42.2066C308.285 42.0203 308.53 41.8272 308.769 41.6274V41.6274ZM300.991 54.9284C301.005 54.8286 301.351 54.7465 301.395 54.6444C301.664 54.8974 302.66 54.6244 302.747 55.0105C302.829 55.39 302.001 56.4418 301.897 56.8013C301.732 57.3161 300.996 58.0595 300.35 58.0817C300.35 57.9796 299.5 57.831 299.5 57.74C299.405 57.74 299.733 56.9855 299.587 57.0898C300.259 56.595 300.687 55.7695 300.991 54.9284V54.9284Z" fill="#236AB3"/>
<path fill-rule="evenodd" clip-rule="evenodd" d="M183.767 60.5271C184.286 60.8688 184.781 61.4236 184.812 62.1692C184.639 62.1714 184.468 62.1781 184.302 62.1781C183.663 62.5908 182.573 63.6427 181.814 63.656C181.814 63.5517 181.814 63.4674 181.808 63.3675C181.595 63.1656 181.555 63.17 181.546 62.8238C181.881 62.815 182.22 62.815 182.549 62.7928C182.407 62.5043 182.03 62.0871 182.023 61.6988C182.784 61.4414 183.203 61.1684 183.767 60.5271V60.5271ZM179.806 64.5481H180.064C180.214 64.7811 180.849 65.3558 180.334 65.3691C179.961 65.9727 179.56 66.5208 178.845 66.5408C178.865 67.1799 178.879 67.8478 178.892 68.4936C178.459 68.407 178.049 68.3293 177.62 68.2583L177.616 67.9743C177.782 67.961 178.049 67.779 178.117 67.9565C178.104 67.9299 178.029 67.6747 178.37 67.6747C178.231 67.1 178.029 65.4379 178.06 65.4379C178.643 65.1339 179.229 64.8454 179.806 64.5481V64.5481ZM295.417 63.6427C295.998 64.0199 295.945 64.2418 295.799 65.1184C295.657 65.9505 294.816 66.4409 294.356 67.1022C293.628 68.1252 293.369 69.3989 292.787 70.4818C292.25 71.1586 290.269 73.5508 289.468 73.9569C288.09 74.6492 290.091 74.0878 289.332 74.9311C288.205 76.1782 285.808 78.506 285.686 78.233C285.522 77.8558 286.195 77.4097 286.019 77.0414C285.6 76.1782 289.079 72.0396 289.226 71.4893C289.317 71.0433 290.3 70.4153 290.717 70.4064C290.89 69.4389 290.95 69.1792 291.696 68.7976C291.449 68.9329 291.531 68.0875 291.778 68.2228C291.487 68.0764 291.4 67.6658 291.656 67.5726C291.747 67.5438 291.656 67.3929 291.651 67.293C291.969 67.1333 292.907 66.8426 292.898 66.4298C292.814 66.1508 292.725 65.8733 292.63 65.5977C292.834 65.3469 292.943 65.1694 293.003 65.0828C293.016 65.1694 293.375 65.1916 293.375 65.2959C293.713 65.1827 294.39 64.75 294.394 65.2604C294.549 65.2604 294.827 65.1672 294.707 64.9985C293.853 63.7891 295.417 63.7381 295.417 63.6427V63.6427ZM177.907 70.2022C178.077 70.1845 178.248 70.1845 178.41 70.1845C178.259 70.666 177.702 73.5597 178.228 73.5486C178.235 73.7394 178.235 73.9302 178.242 74.1122C177.616 73.8526 176.462 73.431 176.451 72.4923C176.276 72.1639 175.661 71.3695 175.652 71.1098C175.998 71.0921 176.331 71.0832 176.671 71.0788C176.591 70.737 176.145 69.6963 176.639 69.683C176.635 69.572 177.893 69.5298 177.907 70.2022V70.2022ZM187.085 89.7477C186.723 88.1145 185.289 88.7846 185.094 88.6293C184.821 88.4207 184.908 88.1145 185.292 88.11C185.289 87.7239 185.434 87.9015 185.09 87.9103C184.539 87.4976 183.969 87.1004 183.412 86.6699C181.814 85.5293 180.718 83.7696 180.68 81.5993C180.849 81.5993 181.011 81.5949 181.189 81.5816C182.043 82.882 185.094 85.6691 186.574 85.6336C186.568 85.5293 186.568 85.4561 186.55 85.3518C187.067 84.7282 189.024 86.2882 189.339 85.5781L191.663 87.7239C192.801 87.988 193.358 88.5117 194.689 88.4873C194.689 88.5872 194.7 88.6826 194.7 88.7602C194.712 88.9466 194.712 89.1419 194.712 89.3106C196.329 88.9023 197.896 89.7921 199.514 89.7477C199.605 89.457 199.691 89.1752 199.76 88.9023C199.842 88.9023 199.924 88.9023 199.997 88.8978C200.321 89.2662 200.825 89.994 201.284 89.9718V89.69C201.631 89.477 202.536 89.2396 202.525 88.8313H202.776C203.639 88.8956 204.471 88.9666 205.308 89.031L212.273 85.1876C212.564 85.7024 212.892 86.2882 213.578 86.2793C214.355 85.3606 215.398 85.1343 216.292 84.473C216.747 84.0913 217.528 82.8087 218.052 82.791C217.956 82.3361 217.683 81.1311 218.26 81.1133C218.433 81.3131 218.784 81.8856 218.779 81.3774C218.853 81.3774 218.948 81.3597 219.03 81.3597C219.281 81.0867 219.785 81.0046 219.767 80.5009H220.022C219.867 80.2013 219.507 79.7864 219.481 79.4047C220.071 79.1739 220.626 78.5126 221.24 78.5037C221.409 78.6813 221.458 78.7856 221.744 78.7634C221.744 78.6768 221.917 78.4815 221.995 78.4815C221.982 77.9193 221.967 77.3572 221.951 76.7951C222.31 76.582 222.956 76.1759 222.687 75.6545C222.969 75.3593 223.282 75.0908 223.688 75.0731V74.7957C223.61 74.7957 223.511 74.7957 223.428 74.8046C223.12 74.5494 222.851 74.2631 222.41 74.2675C222.41 74.1766 222.328 74.0212 222.41 73.9902C223.879 73.4043 224.065 72.834 224.143 72.834C224.096 71.9065 224.016 71.0011 223.965 70.0735C223.834 69.7052 223.575 69.6408 223.575 69.197H223.817C223.817 69.0838 223.803 69.0106 223.803 68.9107C224.489 68.154 225.017 66.0481 224.982 64.9541C225.177 64.7189 225.237 64.7544 225.237 64.3905C224.882 64.2907 224.451 64.304 224.451 63.8557C224.525 63.2166 223.919 61.9074 224.161 61.8985C224.152 61.7986 224.065 61.6389 223.919 61.6389C224.11 61.3171 224.236 61.0686 224.66 61.0442C224.66 60.8666 224.651 60.6825 224.642 60.4827C224.11 60.0212 223.029 57.467 223.06 57.467C222.847 56.6371 222.991 56.8257 222.778 56.038C222.472 55.5527 222.161 55.0704 221.846 54.5911C221.509 53.759 221.522 53.0977 220.979 52.361C220.575 52.1257 220.164 51.8817 219.756 51.6464C218.968 51.1693 217.12 48.9592 216.751 48.1581C216.616 47.8896 216.214 47.4968 216.705 47.4923C217.128 46.8865 217.597 46.6646 218.191 46.3318C219.401 47.013 220.319 49.2454 221.906 49.1988C221.911 49.2942 221.911 49.3896 221.911 49.4829C221.633 50.7766 222.547 51.1449 223.453 51.1072C223.457 51.2182 224.052 51.0761 224.052 51.1605C224.844 52.3432 225.062 52.4542 225.084 53.9543C225.417 54.1052 225.357 53.4772 225.738 53.4528C226.12 54.4691 226.488 55.4876 226.861 56.484C227.185 57.6401 227.685 61.6366 229.054 62.0405C229.145 62.0627 229.063 62.2247 229.063 62.309C228.976 62.3246 229.054 62.3246 228.963 62.3246C228.239 62.7085 226.626 63.241 226.653 64.3883C226.562 64.497 226.497 64.588 226.411 64.6879C226.497 64.6856 226.584 64.6856 226.662 64.6701C227.148 65.3558 227.243 65.5466 227.598 66.3655C227.893 67.0223 227.598 69.1016 227.594 68.8042C227.094 68.8308 226.571 68.8308 226.076 68.8486C226.249 70.1401 227.008 70.5906 227.349 71.669C227.5 72.5788 227.645 73.4709 227.778 74.3652C227.851 74.6692 228.133 74.9599 227.722 74.971L227.727 75.2351C227.403 75.4769 227.094 75.7299 226.764 75.9807C225.905 77.6672 225.341 79.4468 224.19 81.0335C223.362 82.1341 222.516 83.2392 221.671 84.3532C221.607 84.7269 221.594 85.1076 221.631 85.4849C221.544 85.4982 219.911 86.4724 219.161 86.9761C218.72 87.4532 219.756 88.6049 219.17 88.6271C219.179 88.8268 219.179 89.0043 219.188 89.1863C219.106 89.1996 219.024 89.1996 218.933 89.1996C218.455 88.8779 217.759 88.3897 217.155 88.4141C216.514 88.4229 215.755 88.8956 215.404 89.5835C215.009 90.3424 214.803 88.6781 214.239 89.619C214.044 89.9053 213.083 89.7366 212.167 90.0784C210.824 90.5821 210.178 90.966 209.619 90.9882C209.97 90.1827 207.382 92.4794 207.382 92.0666C206.81 90.2981 206.81 93.4624 205.35 92.4084C205.026 92.1665 204.759 91.827 204.362 91.827C204.167 92.1732 203.594 92.577 203.634 92.9876C203.452 92.9876 202.443 92.2109 202.034 92.1288C201.471 92.0245 198.555 92.0822 198.568 92.8477C198.235 92.8522 198.335 92.9254 198.317 92.5659C197.525 92.0977 196.771 91.4875 195.772 91.5119C195.797 91.8847 195.539 92.5571 195.539 92.6525C195.282 92.4439 194.763 91.5696 194.778 92.111C194.427 92.111 194.516 92.1931 194.514 91.8248C194.208 92.08 193.973 92.415 193.522 92.4261V92.1443C193.522 92.0444 193.522 91.9668 193.507 91.8669C192.923 91.685 191.614 90.7885 191.228 90.8129C190.431 92.3085 188.658 87.9081 189.006 90.0207L187.085 89.7477V89.7477ZM177.76 74.6825C178.277 75.1197 178.819 76.065 179.551 76.0339C179.551 76.1427 179.551 76.2248 179.558 76.3202C179.203 76.8971 179.402 78.8344 180.115 78.8122L179.653 80.7805C179.389 80.7894 179.311 80.8027 179.06 80.8071C179.06 80.7073 179.052 80.6385 179.052 80.5342H179.136C178.907 79.935 177.046 77.3409 177.046 77.2233C177.529 76.3956 177.771 75.7832 177.76 74.6825V74.6825ZM133.716 107.882C133.221 107.882 128.85 107.132 126.526 105.607C123.504 103.648 121.387 100.506 117.055 94.9292C115.444 92.8655 107.256 80.6407 105.368 78.0533C106.078 77.2034 113.674 66.7849 114.459 65.9527C116.186 64.1176 117.726 63.5184 119.297 62.8372C120.121 62.5192 120.992 62.3407 121.875 62.309C122.13 62.309 122.727 62.309 122.727 61.6855C122.727 61.0242 122.011 61.0242 121.775 61.0242L118.789 61.1085L115.806 61.184L113.205 61.1085L111.122 61.0242C110.84 61.0242 110.241 61.0242 110.241 61.6855C110.241 62.1759 110.665 62.2868 110.946 62.3556C111.199 62.4555 111.39 62.6863 111.466 63.1589C111.674 64.446 102.066 76.278 101.047 77.4963C101.047 77.1412 101.047 66.6939 101.14 65.1095C101.24 63.3098 101.613 62.6774 102.691 62.4555L103.93 62.309C104.587 62.309 104.735 61.9651 104.735 61.6855C104.735 61.0242 103.999 61.0242 103.608 61.0242L100.04 61.1107L97.4412 61.1817L95.4241 61.1329L91.1013 61.0242C90.6575 61.0242 89.9408 61.0242 89.9408 61.6855C89.9408 62.309 90.5887 62.309 90.8706 62.309C91.5851 62.309 91.9912 62.3734 92.3063 62.4555C93.7509 62.7972 94.0372 63.5495 94.1237 65.1095C94.2058 66.6939 94.2058 68.0608 94.2058 75.6412V84.382C94.2058 88.9466 94.2058 92.8677 93.9928 94.9492C93.7886 96.5136 93.5534 97.1283 92.8034 97.2814C92.4439 97.3857 91.2456 97.4323 90.3713 97.459C89.4836 97.4412 88.4074 97.3902 87.9525 97.2859C86.9517 97.0262 85.7024 96.4226 84.0802 92.2109C82.447 87.9458 79.5822 79.5245 77.1124 72.7497C75.1707 67.3996 73.8015 62.9281 73.3222 61.721C72.8673 60.5471 72.3436 59.8725 71.8199 59.8725L71.6535 59.8658C71.1697 59.8281 70.2466 59.797 69.7029 61.1928C69.7029 61.2062 58.0107 93.245 58.0107 93.245C57.8443 93.691 57.7311 94.1082 57.5891 94.4765C56.4352 97.2726 55.4521 97.4456 54.5467 97.459C53.6147 97.4812 53.3751 97.49 52.4608 97.1039C51.3624 96.649 50.477 95.7126 49.9688 91.1879L44.6719 54.2627C44.4944 52.9135 44.024 52.088 43.4292 52.088C42.8257 52.088 42.3419 52.5518 41.9669 53.4683C41.9669 53.4683 29.4647 81.7347 27.9424 85.1876C27.6539 84.5152 13.7071 52.7937 13.7071 52.7937C13.2655 51.7596 12.7152 51.3757 12.1582 51.3757C11.7832 51.3757 11.0199 51.7596 10.798 53.1798L4.73326 92.8322C4.43812 95.0069 3.98321 97.0751 2.63181 97.3879C1.8396 97.561 1.46236 97.561 1.03186 97.561C0.78111 97.561 0 97.561 0 98.1624C0 99.0256 0.858777 99.0256 1.13616 99.0256L4.49138 98.9258L6.52626 98.8437L8.50788 98.908L12.8994 99.0256C13.412 99.0256 14.3595 99.0256 14.3595 98.1624C14.3595 97.7807 14.0245 97.561 13.3809 97.561C12.6908 97.561 11.9363 97.4656 11.1286 97.2703C10.1234 97.0107 9.98134 96.4426 9.98134 95.555C9.98134 94.5542 10.0324 93.7775 10.1367 92.7679C10.1367 92.7679 12.946 73.7794 13.2611 71.5958C14.8721 75.3971 22.6011 93.387 23.7861 95.8745L23.957 96.2296C24.7936 97.9338 25.2862 98.9258 25.841 98.9524C26.7974 99.0301 27.1036 98.2334 28.384 95.3819C28.384 95.3819 38.4253 72.6632 39.1642 70.9589C39.2197 71.4005 42.6148 94.7694 42.6148 94.7694C42.6881 95.3109 42.7036 95.5284 42.7147 96.0521C42.7635 97.6076 42.373 97.5477 41.0038 97.6809C40.4934 97.7275 40.2493 97.9893 40.2582 98.3821C40.2626 99.0278 40.4979 99.3363 42.8723 99.192C45.0603 99.0545 52.2655 99.0278 54.0763 99.0234C54.2228 99.0278 54.3759 99.0278 54.5645 99.0278L57.3827 98.8903L57.5669 98.8725L58.5655 98.8414L64.0643 98.9923C64.3705 98.9923 65.0074 98.9923 65.0074 98.3022C65.0074 97.8473 64.7411 97.7386 64.3994 97.7031H63.4674C63.3764 97.7031 63.2921 97.703 63.21 97.6986C61.9917 97.6121 61.8319 96.9308 61.8319 96.3517C61.8319 95.8146 62.0383 94.6563 62.4976 93.4092L62.8549 92.3218C63.5384 90.3358 64.9075 86.2882 64.9075 86.2882C65.0007 86.0286 65.0362 86.0153 65.165 86.0153H74.2254C74.3962 86.0153 74.4739 86.0752 74.5338 86.246L78.1553 96.7821C78.2329 96.9607 78.2408 97.1617 78.1775 97.3458C78.0533 97.692 77.6871 97.7275 77.5296 97.7275C77.2877 97.7275 76.9881 97.7053 76.8683 97.7053C76.6397 97.7275 76.1271 97.7874 76.1271 98.3377C76.1271 99.1654 77.2788 98.888 78.6347 98.888C78.6347 98.888 80.472 98.9235 82.5469 98.9235C86.7912 98.9332 91.0355 98.9273 95.2798 98.9058L97.4057 98.8414L99.7046 98.888L104.615 98.9923C105.539 98.9923 105.643 98.5064 105.643 98.3022C105.643 97.9982 105.445 97.7031 104.888 97.7031C104.287 97.7031 103.297 97.6032 102.689 97.5033C101.764 97.3436 101.293 96.5536 101.196 94.9936C101.049 92.8655 101.049 88.9378 101.049 84.3754V83.024C101.167 83.1704 101.48 83.6431 101.48 83.6431C102.434 85.081 114.925 103.559 117.04 105.401C119.246 107.347 121.258 108.335 124.401 108.889C126.717 109.318 127.237 109.167 128.601 109.167H133.219C133.887 109.167 134.482 109.12 134.482 108.477C134.48 108.299 134.404 107.882 133.716 107.882V107.882ZM73.3688 82.3671H66.2123H66.1968C67.9809 77.0658 69.7651 71.7489 69.9714 71.1675C70.0691 71.4893 73.442 82.3361 73.442 82.3361V82.3494C73.4173 82.3537 73.3928 82.3597 73.3688 82.3671V82.3671Z" fill="#236AB3"/>
<path fill-rule="evenodd" clip-rule="evenodd" d="M382.216 94.5586C382.216 92.2397 383.742 90.48 385.691 90.48C387.619 90.48 389.141 92.2397 389.141 94.5586C389.141 96.9286 387.619 98.6683 385.691 98.6683C383.742 98.6683 382.216 96.9286 382.216 94.5586ZM385.693 99.4872C388.021 99.4872 390 97.4057 390 94.5586C390 91.7338 388.018 89.6567 385.693 89.6567C383.361 89.6567 381.368 91.7338 381.368 94.5586C381.366 97.4057 383.361 99.4872 385.693 99.4872ZM384.794 94.9536H385.653L386.94 97.4057H387.768L386.376 94.9092C387.109 94.8138 387.654 94.3678 387.654 93.3537C387.654 92.2397 387.082 91.7338 385.917 91.7338H384.049V97.4079H384.794V92.4705H385.804C386.323 92.4705 386.887 92.5881 386.887 93.2938C386.887 94.1659 386.31 94.2213 385.682 94.2213H384.794V94.9536V94.9536Z" fill="#60677B"/>
</svg>
